# xmcd
#
# Track frame offsets:
#	150
#	45919
#	77006
#	119209
#	158575
#	201094
#
# Disc length: 3289 seconds
#
# Revision: 2
# Processed by: cddbd v1.4PL0 Copyright (c) Steve Scherf et al.
# Submitted via: dBpowerAMP V4.0
#
DISCID=440cd706
DTITLE=Corciolli - The Tranquility Of The Sounds Of Nature
DYEAR=2001
DGENRE=New Age
TTITLE0=Songbirds
TTITLE1=Water
TTITLE2=Forest
TTITLE3=Sea
TTITLE4=Dolphins And Whales
TTITLE5=Rain
EXTD=
EXTT0=
EXTT1=
EXTT2=
EXTT3=
EXTT4=
EXTT5=
PLAYORDER=
